<?xml version="1.0" standalone="no"?>
<!DOCTYPE svg PUBLIC "-//W3C//DTD SVG 20010904//EN"
 "http://www.w3.org/TR/2001/REC-SVG-20010904/DTD/svg10.dtd">
<svg version="1.0" xmlns="http://www.w3.org/2000/svg"
 width="104.000000pt" height="118.000000pt" viewBox="0 0 104.000000 118.000000"
 preserveAspectRatio="xMidYMid meet">

<g transform="translate(0.000000,118.000000) scale(0.100000,-0.100000)"
fill="#000000" stroke="none">
<path d="M515 1131 c-6 -5 -35 -16 -65 -24 -55 -16 -265 -124 -315 -162 -25
-19 -26 -24 -19 -73 5 -41 9 -50 20 -42 10 9 13 5 16 -17 2 -15 -1 -36 -7 -45
-34 -60 129 -395 208 -428 35 -15 -43 -2 -161 26 -57 14 -109 23 -117 21 -9
-4 -10 -18 -4 -54 4 -26 12 -93 18 -147 6 -55 13 -102 16 -104 2 -2 19 1 37 6
18 6 45 13 61 16 24 6 27 11 27 46 0 21 4 41 9 44 5 3 9 -28 9 -70 2 -114 12
-131 64 -103 17 9 19 17 13 54 -5 38 -3 45 15 55 21 11 22 11 15 -44 l-7 -56
33 3 c29 2 34 7 34 27 -1 14 -4 37 -8 52 -6 23 -4 27 15 30 20 3 23 9 24 51 1
68 19 80 22 15 2 -59 10 -71 43 -66 20 3 23 9 24 47 2 63 54 96 82 52 10 -15
9 -20 -2 -25 -17 -6 -20 -57 -6 -71 6 -6 11 -32 13 -60 3 -48 4 -50 36 -52
l32 -3 0 50 c0 38 4 50 15 50 11 0 15 -12 15 -49 0 -50 8 -63 48 -75 21 -7 22
-5 22 49 l0 56 33 -4 c17 -3 39 -7 47 -10 93 -35 114 -31 108 19 -2 21 -9 30
-25 32 -19 3 -23 10 -23 37 0 19 4 37 10 40 6 3 10 22 10 41 0 19 -4 34 -10
34 -5 0 -10 5 -10 11 0 6 6 9 14 6 19 -7 36 12 36 40 0 34 -18 36 -106 14 -43
-12 -100 -25 -126 -30 l-47 -8 45 50 c25 28 50 59 55 69 9 16 7 18 -15 12 -19
-4 -26 -2 -26 9 0 8 -6 17 -13 20 -9 3 -12 17 -9 41 4 30 8 36 28 36 21 0 23
4 18 24 -4 18 -1 27 15 35 13 7 22 8 26 1 3 -5 14 -10 23 -10 12 0 9 6 -10 18
-32 19 -33 26 -13 66 9 18 12 32 6 35 -5 4 -12 18 -16 32 -6 23 -2 28 24 37
17 6 31 18 31 26 0 8 9 18 20 21 20 6 28 25 11 25 -5 0 -11 7 -15 15 -4 12 0
14 19 9 18 -4 27 -1 31 10 8 21 -8 33 -118 90 -48 25 -99 53 -113 62 -14 9
-54 27 -88 39 -34 12 -69 25 -77 29 -9 4 -20 2 -25 -3z m-153 -91 c-40 -38
-64 -95 -75 -175 -3 -26 -4 -24 -6 9 -2 63 20 117 66 164 23 23 45 42 49 42 4
0 -12 -18 -34 -40z m138 -32 c0 -8 3 -9 8 -3 21 29 58 0 48 -39 -8 -32 -41
-24 -61 15 -18 33 -18 39 -5 39 6 0 10 -6 10 -12z m80 2 c0 -5 -4 -10 -10 -10
-5 0 -10 5 -10 10 0 6 5 10 10 10 6 0 10 -4 10 -10z m-111 -186 c2 -2 -11 -5
-30 -5 l-34 -1 30 -8 c21 -5 24 -8 10 -9 -23 -1 -110 -24 -139 -36 -17 -8 -17
-6 -2 23 9 18 26 34 39 36 53 12 64 13 92 8 17 -3 32 -6 34 -8z m-227 -21 c-6
-2 -10 -8 -7 -13 3 -5 -3 -11 -14 -15 -10 -3 -24 -19 -31 -34 -16 -39 4 -104
43 -137 15 -13 23 -24 17 -24 -21 0 -59 48 -69 87 -19 71 8 144 53 142 12 0
15 -3 8 -6z m316 -147 c13 -29 7 -36 -30 -36 -32 0 -32 0 -16 35 14 32 32 32
46 1z m-266 -48 c-7 -7 -12 -21 -13 -32 0 -13 -3 -16 -6 -8 -6 15 17 65 26 57
2 -3 -1 -11 -7 -17z m212 -23 c28 -43 21 -62 -23 -67 -30 -2 -37 0 -30 8 7 8
6 13 -2 16 -8 3 -7 13 5 36 20 38 29 40 50 7z m-221 -50 c-3 -9 -8 -14 -10
-11 -3 3 -2 9 2 15 9 16 15 13 8 -4z m47 -62 c11 3 18 1 14 -4 -9 -15 -41 -10
-55 9 -13 15 -12 16 3 3 10 -7 27 -11 38 -8z m400 -13 c0 -5 -2 -10 -4 -10 -3
0 -8 5 -11 10 -3 6 -1 10 4 10 6 0 11 -4 11 -10z m-369 -41 c-9 -22 -10 -22
-10 -3 -1 11 2 24 6 27 12 12 14 0 4 -24z m59 -71 c0 -14 -19 1 -31 25 -12 22
-12 22 10 3 11 -11 21 -23 21 -28z m-300 -33 c0 -30 5 -55 10 -55 6 0 10 23
10 50 0 28 3 50 8 50 20 -1 30 -20 38 -70 4 -30 9 -48 10 -40 2 8 5 32 9 53 4
24 11 37 22 37 9 0 13 -6 10 -13 -3 -8 -11 -57 -18 -110 -11 -83 -15 -97 -31
-97 -15 0 -18 8 -18 57 0 70 -13 61 -20 -15 -4 -41 -9 -58 -21 -60 -13 -2 -17
11 -22 70 -4 40 -10 101 -13 136 -6 53 -5 62 10 62 13 0 16 -11 16 -55z m350
13 c0 -14 -19 1 -31 25 -12 22 -12 22 10 3 11 -11 21 -23 21 -28z m480 22 c0
-13 -7 -20 -20 -20 -15 0 -20 -7 -20 -25 0 -14 5 -25 10 -25 15 0 12 -31 -4
-44 -20 -17 -9 -97 15 -103 11 -3 19 -14 19 -24 0 -22 2 -22 -38 -8 -29 10
-31 15 -34 62 -2 29 -2 84 0 124 3 64 6 72 25 76 42 8 47 7 47 -13z m-340 -3
c0 -2 -12 -14 -27 -28 l-28 -24 24 28 c23 25 31 32 31 24z m240 -118 l0 -111
-27 7 c-33 8 -42 20 -44 60 -5 159 -8 151 49 154 22 1 22 -1 22 -110z m-527
91 c9 0 17 -7 17 -15 0 -11 -7 -14 -25 -9 -18 4 -25 2 -25 -9 0 -8 7 -17 15
-21 8 -3 15 -10 15 -16 0 -5 -7 -10 -15 -10 -11 0 -15 -11 -15 -40 0 -29 -4
-40 -15 -40 -12 0 -15 16 -15 86 0 85 0 86 23 80 12 -3 30 -6 40 -6z m425 -82
c-2 -54 -7 -83 -15 -86 -10 -3 -13 18 -13 82 0 71 3 86 15 86 13 0 15 -14 13
-82z m-310 45 c2 -16 -2 -23 -12 -23 -9 0 -16 7 -16 15 0 8 -4 15 -10 15 -15
0 -12 -19 8 -48 40 -58 30 -92 -27 -92 -16 0 -21 6 -21 25 0 25 14 33 25 15 8
-13 25 -13 25 1 0 6 -11 25 -25 43 -14 18 -25 43 -25 55 0 20 5 22 38 19 30
-2 38 -7 40 -25z m99 14 c3 -4 -2 -9 -11 -13 -12 -5 -16 -20 -16 -65 0 -41 -4
-59 -12 -59 -9 0 -13 19 -13 62 0 45 -4 62 -12 61 -7 -2 -13 4 -13 12 0 10 10
13 35 11 20 -2 38 -6 42 -9z m153 -12 c0 -14 -4 -25 -10 -25 -5 0 -10 7 -10
15 0 8 -4 15 -10 15 -16 0 -11 -23 10 -50 11 -14 20 -40 20 -58 0 -32 -2 -33
-32 -30 -25 2 -34 8 -36 26 -4 26 13 29 27 5 9 -17 10 -17 16 -1 5 12 -2 29
-19 49 -14 17 -26 41 -26 55 0 21 5 24 35 24 31 0 35 -3 35 -25z m-320 -67 c0
-5 -7 -8 -15 -8 -8 0 -15 -4 -15 -10 0 -5 -7 -10 -15 -10 -8 0 -15 6 -15 14 0
8 7 16 15 20 8 3 15 13 15 23 0 15 2 15 15 -3 8 -10 15 -22 15 -26z m-30 -58
c0 -5 -6 -10 -14 -10 -8 0 -18 5 -21 10 -3 6 3 10 14 10 12 0 21 -4 21 -10z
m-33 -35 c2 -11 0 -14 -3 -7 -12 26 -24 10 -24 -33 0 -26 5 -45 11 -45 7 0 9
10 5 25 -4 14 -2 25 4 25 5 0 10 -13 10 -29 0 -28 -22 -47 -41 -35 -11 6 -12
107 -2 118 13 13 38 1 40 -19z m470 10 c7 -20 -6 -33 -16 -16 -6 9 -10 5 -13
-14 -7 -33 1 -67 14 -59 5 3 6 14 3 25 -4 11 -2 19 4 19 6 0 11 -16 11 -36 0
-31 -3 -35 -22 -32 -20 3 -23 10 -26 52 -2 27 -1 55 2 62 7 19 35 18 43 -1z
m-383 -13 c2 -4 8 -25 12 -47 7 -37 6 -39 -10 -26 -15 13 -19 13 -27 0 -7 -12
-9 -11 -9 2 0 52 19 94 34 71z m262 -14 l8 -23 7 25 c5 19 7 14 8 -22 1 -52
-5 -60 -19 -25 -7 17 -9 18 -9 5 -2 -37 -21 -16 -21 22 0 44 14 53 26 18z"/>
<path d="M800 235 c0 -43 4 -75 10 -75 6 0 10 32 10 75 0 43 -4 75 -10 75 -6
0 -10 -32 -10 -75z"/>
<path d="M883 815 c-29 -20 -31 -24 -17 -36 9 -7 15 -27 14 -48 -1 -20 -1 -52
0 -71 1 -34 2 -34 11 -10 11 28 39 153 39 176 0 19 -9 17 -47 -11z"/>
<path d="M131 794 c0 -11 3 -14 6 -6 3 7 2 16 -1 19 -3 4 -6 -2 -5 -13z"/>
<path d="M790 531 c0 -5 7 -14 15 -21 8 -7 12 -16 9 -21 -3 -5 -3 -9 0 -9 3 0
12 14 21 30 l16 30 -31 0 c-16 0 -30 -4 -30 -9z"/>
<path d="M443 115 c-2 -7 -3 -26 -1 -42 3 -25 7 -28 46 -31 l42 -3 0 45 0 45
-41 -1 c-23 0 -43 -6 -46 -13z m37 -12 c1 -17 1 -17 14 0 20 26 26 21 25 -20
0 -28 -2 -33 -8 -19 -7 19 -8 19 -15 0 -8 -19 -8 -19 -16 1 -7 17 -9 17 -9 3
-1 -24 -21 -23 -21 1 0 42 30 74 30 34z"/>
<path d="M560 85 c0 -39 3 -46 18 -43 13 2 17 13 17 43 0 30 -4 41 -17 43 -15
3 -18 -4 -18 -43z m22 0 c-5 -45 -12 -45 -12 0 0 19 4 35 8 35 4 0 6 -16 4
-35z"/>
</g>
</svg>
